<?xml version="1.0" encoding="UTF-8"?>
<svg id="Layer_1" data-name="Layer 1" xmlns="http://www.w3.org/2000/svg" viewBox="0 0 602.19 515.87">
  <defs>
    <style>
      .cls-1 {
        fill: #fff;
      }

      .cls-2 {
        fill: #f03;
      }
    </style>
  </defs>
  <path class="cls-2" d="M65.98,456.8c-25.95-7.03-46.18-27.72-53.67-53.23C0,356.51,0,258.4,0,258.4,0,258.4,0,160.31,12.32,113.69c7.47-25.95,27.72-46.18,53.67-53.23,46.62-12.76,234.89-12.76,234.89-12.76,0,0,188.71,0,235.33,12.76,26.39,7.03,46.18,27.28,53.23,53.23,12.76,46.62,12.76,144.71,12.76,144.71,0,0,0,98.09-12.76,145.17-7.05,25.51-26.83,46.18-53.23,53.23-46.62,12.76-235.33,12.76-235.33,12.76,0,0-188.27,0-234.89-12.76h0ZM241.05,349.04l156.16-90.62-156.16-90.18v180.8h0Z"/>
  <polygon class="cls-1" points="261.56 317.46 364.38 257.79 261.56 198.41 261.56 317.46"/>
</svg>